<?xml version="1.0" encoding="UTF-8"?>
<svg width="32px" height="32px" viewBox="0 0 32 32" version="1.1" xmlns="http://www.w3.org/2000/svg" xmlns:xlink="http://www.w3.org/1999/xlink">
    <!-- Generator: Sketch 57.1 (83088) - https://sketch.com -->
    <title>error-icon</title>
    <desc>Created with Sketch.</desc>
    <defs>
        <path d="M2,16 L2,16 C2,23.7 8.3,30 16,30 C23.7,30 30,23.7 30,16 C30,8.3 23.7,2 16,2 C8.3,2 2,8.3 2,16 Z M25.1,23.7 L8.3,6.9 C10.4,5 13.2,4 16,4 C22.6,4 28,9.4 28,16 C28,18.8 27,21.6 25.1,23.7 Z M8.2,25.2 C3.2,20.9 2.6,13.3 6.8,8.3 L23.7,25.2 C21.6,27 18.8,28 16,28 C13.2,28 10.4,27 8.2,25.2 Z" id="path-1"></path>
    </defs>
    <g id="error-icon" stroke="none" stroke-width="1" fill="none" fill-rule="evenodd">
        <g id="icon/status/error/32">
            <mask id="mask-2" fill="white">
                <use xlink:href="#path-1"></use>
            </mask>
            <use id="icon-color" fill="#FFFFFF" fill-rule="evenodd" xlink:href="#path-1"></use>
        </g>
    </g>
</svg>