<?xml version="1.0" encoding="UTF-8"?>
<svg width="32px" height="32px" viewBox="0 0 32 32" version="1.1" xmlns="http://www.w3.org/2000/svg" xmlns:xlink="http://www.w3.org/1999/xlink">
    <!-- Generator: Sketch 57.1 (83088) - https://sketch.com -->
    <title>factory-icon</title>
    <desc>Created with Sketch.</desc>
    <g id="factory-icon" stroke="none" stroke-width="1" fill="none" fill-rule="evenodd">
        <g id="pictograms/manufacture/factory" transform="translate(1.000000, 1.000000)" fill="#FFFFFF">
            <path d="M30.0000121,29.9993 L28.72,29.9993 L28.72,22.6043 C28.72,21.7193 27.993,21.0003 27.099,21.0003 L25.719,21.0003 L25.719,19.7203 L27.197,19.7203 C28,19.7203 28.774,20.0153 29.268,20.5103 C29.756,20.9993 30.002,21.6863 30.0000121,22.5533 L30.0000121,29.9993 Z M28,29.9993 L25.72,29.9993 L25.719,21.7203 L27.099,21.7203 C27.596,21.7203 28,22.1173 28,22.6043 L28,29.9993 Z M17.72,29.9993 L17.72,24.3603 C17.72,24.1613 17.559,24.0003 17.36,24.0003 L13.36,24.0003 C13.161,24.0003 13,24.1613 13,24.3603 L13,29.9993 L5.72,29.9993 L5.72,16.5613 L11.5,12.9993 L11.5,16.3613 C11.5,16.4893 11.568,16.6083 11.679,16.6723 C11.79,16.7363 11.927,16.7373 12.038,16.6733 L18.5,12.9863 L18.5,16.3583 C18.5,16.4893 18.57,16.6093 18.685,16.6733 C18.797,16.7353 18.937,16.7333 19.049,16.6653 L25,12.9983 L25,29.9993 L17.72,29.9993 Z M13.72,29.9903 L17,29.9903 L17,24.7203 L13.72,24.7203 L13.72,29.9903 Z M1.72,12.0003 L5,12.0003 L5,5.7203 L1.72,5.7203 L1.72,12.0003 Z M5,29.9993 L1.72,29.9993 L1.72,12.7203 L5,12.7203 L5,29.9993 Z M1.36,5.0003 L5.36,5.0003 C5.534125,5.0003 5.67915625,5.12356562 5.71269336,5.28769648 L5.72,5.3603 L5.72,15.7153 L11.671,12.0473 C11.783,11.9783 11.922,11.9763 12.035,12.0393 C12.1262,12.0905 12.18988,12.17754 12.211704,12.276868 L12.22,12.3533 L12.22,15.7413 L18.682,12.0533 C18.793,11.9893 18.93,11.9903 19.041,12.0543 C19.129,12.1063 19.19076,12.19222 19.211944,12.290556 L19.22,12.3663 L19.22,15.7143 L25.17,12.0473 C25.282,11.9783 25.422,11.9763 25.535,12.0393 C25.6262,12.0905 25.68924,12.17754 25.710808,12.276868 L25.719,12.3533 L25.719,19.0003 L27.197,19.0003 C27.673,19.0003 28.876,19.0983 29.777,20.0013 C30.3576154,20.5828385 30.6723846,21.3595012 30.7150321,22.3124115 L30.7200211,22.5543 L30.7200211,30.3593 C30.7200211,30.533425 30.5967393,30.6784562 30.4326044,30.7119934 L30.36,30.7193 L0.36,30.7193 C0.161,30.7193 0,30.5583 0,30.3593 C0,30.185175 0.123265625,30.0401437 0.287396484,30.0066066 L0.36,29.9993 L1,29.9993 L1,5.3603 C1,5.2643 1.038,5.1733 1.105,5.1053 C1.156,5.05505 1.2199375,5.0211125 1.28921875,5.00728437 L1.36,5.0003 L5.36,5.0003 Z M0.3595,0 C0.5585,0 0.7195,0.161 0.7195,0.36 C0.7195,1.764 1.2855,1.958 1.8965,1.958 C2.9955,1.958 3.7925,2.933 3.7925,4.276 C3.7925,4.475 3.6315,4.636 3.4325,4.636 C3.2335,4.636 3.0725,4.475 3.0725,4.276 C3.0725,3.482 2.6685,2.678 1.8965,2.678 C1.0315,2.678 0.0005,2.276 0.0005,0.36 C0.0005,0.161 0.1615,0 0.3595,0 Z M2.8599,0 C4.5699,0 5.7199,1.15 5.7199,2.86 C5.7199,3.059 5.5589,3.22 5.3599,3.22 C5.1609,3.22 4.9999,3.059 4.9999,2.86 C4.9999,1.56 4.1599,0.72 2.8599,0.72 C2.6609,0.72 2.4999,0.559 2.4999,0.36 C2.4999,0.161 2.6609,0 2.8599,0 Z M21.3599,19.0003 C21.1609,19.0003 20.9999,19.1613 20.9999,19.3603 L20.9999,21.3603 C20.9999,21.5593 21.1609,21.7203 21.3599,21.7203 C21.5589,21.7203 21.7199,21.5593 21.7199,21.3603 L21.7199,19.3603 C21.7199,19.1613 21.5589,19.0003 21.3599,19.0003 M17.3599,19.0003 C17.1609,19.0003 16.9999,19.1613 16.9999,19.3603 L16.9999,21.3603 C16.9999,21.5593 17.1609,21.7203 17.3599,21.7203 C17.5589,21.7203 17.7199,21.5593 17.7199,21.3603 L17.7199,19.3603 C17.7199,19.1613 17.5589,19.0003 17.3599,19.0003 M13.3599,19.0003 C13.1609,19.0003 12.9999,19.1613 12.9999,19.3603 L12.9999,21.3603 C12.9999,21.5593 13.1609,21.7203 13.3599,21.7203 C13.5589,21.7203 13.7199,21.5593 13.7199,21.3603 L13.7199,19.3603 C13.7199,19.1613 13.5589,19.0003 13.3599,19.0003 M9.3599,19.0003 C9.1609,19.0003 8.9999,19.1613 8.9999,19.3603 L8.9999,21.3603 C8.9999,21.5593 9.1609,21.7203 9.3599,21.7203 C9.5589,21.7203 9.7199,21.5593 9.7199,21.3603 L9.7199,19.3603 C9.7199,19.1613 9.5589,19.0003 9.3599,19.0003" id="Fill-1"></path>
        </g>
    </g>
</svg>