<?xml version="1.0" encoding="UTF-8"?>
<svg width="32px" height="32px" viewBox="0 0 32 32" version="1.1" xmlns="http://www.w3.org/2000/svg" xmlns:xlink="http://www.w3.org/1999/xlink">
    <!-- Generator: Sketch 57.1 (83088) - https://sketch.com -->
    <title>neutral-icon</title>
    <desc>Created with Sketch.</desc>
    <defs>
        <path d="M17,21 L17,12 L13,12 L13,14 L15,14 L15,21 L12,21 L12,23 L20,23 L20,21 L17,21 L17,21 Z M16,7 C15.1715729,7 14.5,7.67157288 14.5,8.5 C14.5,9.32842712 15.1715729,10 16,10 C16.8284271,10 17.5,9.32842712 17.5,8.5 C17.5,7.67157288 16.8284271,7 16,7 L16,7 Z M16,30 C8.2680135,30 2,23.7319865 2,16 C2,8.2680135 8.2680135,2 16,2 C23.7319865,2 30,8.2680135 30,16 C29.9913477,23.7283998 23.7283998,29.9913477 16,30 Z M16,4 C9.372583,4 4,9.372583 4,16 C4,22.627417 9.372583,28 16,28 C22.627417,28 28,22.627417 28,16 C27.9926152,9.37564431 22.6243557,4.00738483 16,4 Z" id="path-1"></path>
    </defs>
    <g id="neutral-icon" stroke="none" stroke-width="1" fill="none" fill-rule="evenodd">
        <g id="icon/status/info/32">
            <mask id="mask-2" fill="white">
                <use xlink:href="#path-1"></use>
            </mask>
            <use id="icon-color" fill="#FFFFFF" fill-rule="evenodd" xlink:href="#path-1"></use>
        </g>
    </g>
</svg>