<?xml version="1.0" encoding="UTF-8"?>
<svg width="32px" height="32px" viewBox="0 0 32 32" version="1.1" xmlns="http://www.w3.org/2000/svg" xmlns:xlink="http://www.w3.org/1999/xlink">
    <!-- Generator: Sketch 57.1 (83088) - https://sketch.com -->
    <title>success-icon</title>
    <desc>Created with Sketch.</desc>
    <defs>
        <path d="M23,12.4 L21.6,11 L14,18.6 L10.4,15 L9,16.4 L14,21.4 L23,12.4 Z M16,2 C8.3,2 2,8.3 2,16 C2,23.7 8.3,30 16,30 C23.7,30 30,23.7 30,16 C30,8.3 23.7,2 16,2 Z M16,28 C9.4,28 4,22.6 4,16 C4,9.4 9.4,4 16,4 C22.6,4 28,9.4 28,16 C28,22.6 22.6,28 16,28 Z" id="path-1"></path>
    </defs>
    <g id="success-icon" stroke="none" stroke-width="1" fill="none" fill-rule="evenodd">
        <g id="icon/status/checkmark/32">
            <mask id="mask-2" fill="white">
                <use xlink:href="#path-1"></use>
            </mask>
            <use id="icon-color" fill="#FFFFFF" fill-rule="evenodd" xlink:href="#path-1"></use>
        </g>
    </g>
</svg>