<?xml version="1.0" encoding="UTF-8"?>
<svg width="32px" height="32px" viewBox="0 0 32 32" version="1.1" xmlns="http://www.w3.org/2000/svg" xmlns:xlink="http://www.w3.org/1999/xlink">
    <!-- Generator: Sketch 57.1 (83088) - https://sketch.com -->
    <title>warning-icon</title>
    <desc>Created with Sketch.</desc>
    <defs>
        <path d="M16,2 C8.2680135,2 2,8.2680135 2,16 C2,23.7319865 8.2680135,30 16,30 C23.7319865,30 30,23.7319865 30,16 C30,12.2869691 28.5250042,8.72601436 25.8994949,6.10050506 C23.2739856,3.47499577 19.7130309,2 16,2 Z M16,28 C9.372583,28 4,22.627417 4,16 C4,9.372583 9.372583,4 16,4 C22.627417,4 28,9.372583 28,16 C28,19.1825979 26.7357179,22.2348448 24.4852814,24.4852814 C22.2348448,26.7357179 19.1825979,28 16,28 Z M15,8 L17,8 L17,19 L15,19 L15,8 Z M16,21 C15.1715729,21 14.5,21.6715729 14.5,22.5 C14.5,23.3284271 15.1715729,24 16,24 C16.8284271,24 17.5,23.3284271 17.5,22.5 C17.5,21.6715729 16.8284271,21 16,21 Z" id="path-1"></path>
    </defs>
    <g id="warning-icon" stroke="none" stroke-width="1" fill="none" fill-rule="evenodd">
        <g id="icon/status/warning/32">
            <mask id="mask-2" fill="white">
                <use xlink:href="#path-1"></use>
            </mask>
            <use id="icon-color" fill="#FFFFFF" fill-rule="evenodd" xlink:href="#path-1"></use>
        </g>
    </g>
</svg>